<svg width="138.89375px" height="122px" xmlns="http://www.w3.org/2000/svg" viewBox="180.553125 14 138.89375 122" style="background: rgba(0, 0, 0, 0);" preserveAspectRatio="xMidYMid"><defs><filter id="editing-extrusion" x="-100%" y="-100%" width="300%" height="300%"><feFlood result="color1" flood-color="#444"></feFlood><feConvolveMatrix order="8,8" divisor="1" kernelMatrix="1 0 0 0 0 0 0 0 0 1 0 0 0 0 0 0 0 0 1 0 0 0 0 0 0 0 0 1 0 0 0 0 0 0 0 0 1 0 0 0 0 0 0 0 0 1 0 0 0 0 0 0 0 0 1 0 0 0 0 0 0 0 0 1" in="SourceAlpha" result="extrude"></feConvolveMatrix><feComposite in="color1" in2="extrude" result="comp-extrude" operator="in"></feComposite><feOffset dx="4" dy="4" in="comp-extrude" result="offset-extrude"></feOffset><feMerge><feMergeNode in="offset-extrude"></feMergeNode><feMergeNode in="SourceGraphic"></feMergeNode></feMerge></filter></defs><g filter="url(#editing-extrusion)"><g transform="translate(205.74501729011536, 97.43000030517578)"><path d="M2.05-15.62L2.05-15.62L2.05-15.62Q2.05-27.71 8.32-35.33L8.32-35.33L8.32-35.33Q14.98-43.58 26.56-43.58L26.56-43.58L26.56-43.58Q34.94-43.58 39.17-39.52L39.17-39.52L39.17-39.52Q43.39-35.46 43.39-26.88L43.39-26.88L43.39-26.88Q43.39-13.82 36.74-6.21L36.74-6.21L36.74-6.21Q30.14 1.28 19.07 1.28L19.07 1.28L19.07 1.28Q10.43 1.28 6.24-3.04L6.24-3.04L6.24-3.04Q2.05-7.36 2.05-15.62ZM18.88-28.86L18.88-28.86L18.88-28.86Q16-17.34 16-8.26L16-8.26L16-8.26Q16-6.08 16.74-4.67L16.74-4.67L16.74-4.67Q17.47-3.26 19.42-3.26L19.42-3.26L19.42-3.26Q21.38-3.26 22.59-4.19L22.59-4.19L22.59-4.19Q23.81-5.12 24.77-7.23L24.77-7.23L24.77-7.23Q26.30-10.69 27.74-18.02L27.74-18.02L27.74-18.02Q29.18-25.34 29.31-28.38L29.31-28.38L29.31-28.38Q29.44-31.42 29.44-33.73L29.44-33.73L29.44-33.73Q29.44-36.03 28.74-37.50L28.74-37.50L28.74-37.50Q28.03-38.98 26.14-38.98L26.14-38.98L26.14-38.98Q24.26-38.98 22.98-37.82L22.98-37.82L22.98-37.82Q20.61-35.65 18.88-28.86ZM72.45-20.61L85.38-21.76L85.38-21.76Q80.77-11.65 80.77 0.06L80.77 0.06L80.77 0.06Q79.04 1.28 76.51 1.28L76.51 1.28L76.51 1.28Q73.98 1.28 72.38 0.10L72.38 0.10L72.38 0.10Q70.78-1.09 70.46-2.30L70.46-2.30L70.46-2.30Q68.86-0.64 66.27 0.32L66.27 0.32L66.27 0.32Q63.68 1.28 60.93 1.28L60.93 1.28L60.93 1.28Q58.18 1.28 55.78 0.38L55.78 0.38L55.78 0.38Q53.38-0.51 51.52-2.50L51.52-2.50L51.52-2.50Q47.42-6.85 47.42-15.10L47.42-15.10L47.42-15.10Q47.42-27.90 54.27-35.58L54.27-35.58L54.27-35.58Q61.31-43.52 73.79-43.52L73.79-43.52L73.79-43.52Q82.43-43.52 85.50-39.04L85.50-39.04L85.50-39.04Q86.46-37.63 86.46-35.94L86.46-35.94L86.46-35.94Q86.46-34.24 85.73-32.80L85.73-32.80L85.73-32.80Q84.99-31.36 83.84-30.21L83.84-30.21L83.84-30.21Q81.09-27.65 77.70-27.65L77.70-27.65L77.70-27.65Q76.35-27.65 75.07-28.10L75.07-28.10L75.07-28.10Q75.33-30.02 75.33-32.26L75.33-32.26L75.33-32.26Q75.33-34.50 75.17-35.52L75.17-35.52L75.17-35.52Q75.01-36.54 74.62-37.38L74.62-37.38L74.62-37.38Q73.79-39.10 71.97-39.10L71.97-39.10L71.97-39.10Q70.14-39.10 68.13-37.15L68.13-37.15L68.13-37.15Q66.11-35.20 64.51-32L64.51-32L64.51-32Q60.99-24.83 60.99-16.19L60.99-16.19L60.99-16.19Q60.99-12.22 62.53-9.41L62.53-9.41L62.53-9.41Q64.19-6.34 67.14-6.34L67.14-6.34L67.14-6.34Q68.16-6.34 69.09-6.85L69.09-6.85L69.09-6.85Q70.02-7.36 70.40-7.74L70.40-7.74L72.45-20.61Z" fill="#ccc"></path></g></g><style>text {
  font-size: 64px;
  font-family: Arial Black;
  dominant-baseline: central;
  text-anchor: middle;
}</style></svg>